HIERARCHY
ROOT Hips
{
	OFFSET 0.000000 0.000000 0.000000
	CHANNELS 6 Xposition Yposition Zposition Xrotation Yrotation Zrotation
	JOINT LeftUpLeg_virtual
	{
		OFFSET 0.000000 0.000000 0.000000
		CHANNELS 3 Xrotation Yrotation Zrotation
		JOINT LeftUpLeg
		{
			OFFSET 15.427100 -6.655098 0.678600
			CHANNELS 3 Xrotation Yrotation Zrotation
			JOINT LeftLeg
			{
				OFFSET 4.081073 -39.591068 13.024000
				CHANNELS 3 Xrotation Yrotation Zrotation
				JOINT LeftFoot
				{
					OFFSET -4.081074 -37.707932 -15.979700
					CHANNELS 3 Xrotation Yrotation Zrotation
					JOINT LeftToeBase
					{
						OFFSET 5.346399 -15.068900 20.645000
						CHANNELS 3 Xrotation Yrotation Zrotation
						JOINT LeftToe_End
						{
							OFFSET 2.754700 0.931300 11.300900
							CHANNELS 3 Xrotation Yrotation Zrotation
							End Site
							{
								OFFSET 0 0 0
							}
						}
					}
				}
			}
		}
	}
	JOINT RightUpLeg_virtual
	{
		OFFSET 0.000000 0.000000 0.000000
		CHANNELS 3 Xrotation Yrotation Zrotation
		JOINT RightUpLeg
		{
			OFFSET -15.569500 -6.655098 0.678600
			CHANNELS 3 Xrotation Yrotation Zrotation
			JOINT RightLeg
			{
				OFFSET -4.081825 -39.591045 13.023800
				CHANNELS 3 Xrotation Yrotation Zrotation
				JOINT RightFoot
				{
					OFFSET 4.081824 -37.707954 -15.979600
					CHANNELS 3 Xrotation Yrotation Zrotation
					JOINT RightToeBase
					{
						OFFSET -5.346400 -15.068900 20.645000
						CHANNELS 3 Xrotation Yrotation Zrotation
						JOINT RightToe_End
						{
							OFFSET -2.754700 0.931300 11.300900
							CHANNELS 3 Xrotation Yrotation Zrotation
							End Site
							{
								OFFSET 0 0 0
							}
						}
					}
				}
			}
		}
	}
	JOINT Spine_virtual
	{
		OFFSET 0.000000 0.000000 0.000000
		CHANNELS 3 Xrotation Yrotation Zrotation
		JOINT Spine
		{
			OFFSET -0.279200 12.230698 -2.892100
			CHANNELS 3 Xrotation Yrotation Zrotation
			JOINT Spine1
			{
				OFFSET -0.232667 10.192268 -1.242267
				CHANNELS 3 Xrotation Yrotation Zrotation
				JOINT Spine1_split
				{
					OFFSET -0.232667 10.192268 -1.242267
					CHANNELS 3 Xrotation Yrotation Zrotation
					JOINT Spine2
					{
						OFFSET -0.232667 10.192268 -1.242267
						CHANNELS 3 Xrotation Yrotation Zrotation
						JOINT Neck_virtual
						{
							OFFSET 0.000000 0.000000 0.000000
							CHANNELS 3 Xrotation Yrotation Zrotation
							JOINT Neck
							{
								OFFSET -0.418800 17.814194 8.416900
								CHANNELS 3 Xrotation Yrotation Zrotation
								JOINT Head
								{
									OFFSET 0.000000 7.031097 3.806800
									CHANNELS 3 Xrotation Yrotation Zrotation
									JOINT HeadTop_End
									{
										OFFSET 0.000000 24.646606 12.978600
										CHANNELS 3 Xrotation Yrotation Zrotation
										End Site
										{
											OFFSET 0 0 0
										}
									}
								}
							}
						}
						JOINT LeftShoulder_virtual
						{
							OFFSET 0.000000 0.000000 0.000000
							CHANNELS 3 Xrotation Yrotation Zrotation
							JOINT LeftShoulder
							{
								OFFSET 8.476499 7.247704 -3.868750
								CHANNELS 3 Xrotation Yrotation Zrotation
								JOINT LeftShoulder_split
								{
									OFFSET 8.476499 7.247704 -3.868750
									CHANNELS 3 Xrotation Yrotation Zrotation
									JOINT LeftArm
									{
										OFFSET 9.308998 -2.777710 0.208600
										CHANNELS 3 Xrotation Yrotation Zrotation
										JOINT LeftForeArm
										{
											OFFSET 29.972298 0.000000 0.000000
											CHANNELS 3 Xrotation Yrotation Zrotation
											JOINT LeftHand
											{
												OFFSET 26.026505 0.000000 0.000000
												CHANNELS 3 Xrotation Yrotation Zrotation
												End Site
												{
													OFFSET 0 0 0
												}
											}
										}
									}
								}
							}
						}
						JOINT RightShoulder_virtual
						{
							OFFSET 0.000000 0.000000 0.000000
							CHANNELS 3 Xrotation Yrotation Zrotation
							JOINT RightShoulder
							{
								OFFSET -7.570500 7.247704 -3.868750
								CHANNELS 3 Xrotation Yrotation Zrotation
								JOINT RightShoulder_split
								{
									OFFSET -7.570500 7.247704 -3.868750
									CHANNELS 3 Xrotation Yrotation Zrotation
									JOINT RightArm
									{
										OFFSET -9.308998 -2.777710 0.208500
										CHANNELS 3 Xrotation Yrotation Zrotation
										JOINT RightForeArm
										{
											OFFSET -29.972300 0.000000 0.000000
											CHANNELS 3 Xrotation Yrotation Zrotation
											JOINT RightHand
											{
												OFFSET -26.026505 0.000000 0.000000
												CHANNELS 3 Xrotation Yrotation Zrotation
												End Site
												{
													OFFSET 0 0 0
												}
											}
										}
									}
								}
							}
						}
					}
				}
			}
		}
	}
}
MOTION
Frames: 11
Frame Time: 0.03333333
0.289058 78.876213 -0.157204 0.000000 0.000000 0.000000 3.037465 -58.355067 6.232968 -34.682417 8.729304 27.684334 40.318313 -8.743025 -10.519668 -7.477122 -1.700985 -10.845888 -0.354880 1.238055 0.775505 0.000000 0.000000 0.000000 3.037465 -58.355067 6.232968 -31.023436 -7.189572 -29.208375 46.890270 5.288285 -6.185772 -19.302068 0.930658 23.072106 -0.351793 -0.997036 -0.771245 0.000000 0.000000 0.000000 3.037465 -58.355067 6.232968 11.190421 0.276971 -2.458522 8.434589 0.027703 -5.592322 0.000000 0.000000 0.000000 0.000000 0.000000 0.000000 8.457057 0.027854 -5.591866 -21.555654 25.063377 12.062568 -0.294040 25.465754 -3.208977 0.000000 0.000000 0.000000 8.457057 0.027854 -5.591866 -6.221673 -11.503862 -4.023828 0.000000 0.000000 0.000000 -23.062176 9.568549 -36.639611 0.046103 -43.169121 -0.011164 0.000000 0.000000 0.000000 8.457057 0.027854 -5.591866 -5.488239 10.658259 2.466538 0.000000 0.000000 0.000000 -41.473800 -26.755577 30.079074 -155.044570 68.137018 156.691534 0.000000 0.000000 0.000000 
0.166951 78.508919 0.091373 0.000000 0.000000 0.000000 1.774011 -58.292154 4.987372 -34.326939 8.486673 27.857400 41.238220 -9.024540 -10.442186 -8.109298 -1.577347 -10.784473 -0.363922 1.244300 0.755369 0.000000 0.000000 0.000000 1.774011 -58.292154 4.987372 -30.798501 -8.046861 -30.018446 47.285236 6.403319 -5.541990 -19.614464 1.125763 22.378539 -0.421252 -0.990371 -0.765173 0.000000 0.000000 0.000000 1.774011 -58.292154 4.987372 11.141351 0.232947 -2.369986 8.334207 -0.045754 -5.404248 0.000000 0.000000 0.000000 0.000000 0.000000 0.000000 8.356677 -0.045671 -5.403787 -21.836695 24.626046 12.153085 0.665323 24.715294 -2.781587 0.000000 0.000000 0.000000 8.356677 -0.045671 -5.403787 -6.328841 -11.488483 -3.983640 0.000000 0.000000 0.000000 -22.131662 10.073055 -36.144029 2.769373 -44.886890 0.926388 0.000000 0.000000 0.000000 8.356677 -0.045671 -5.403787 -5.548076 9.866013 1.937129 0.000000 0.000000 0.000000 -37.030540 -24.874079 32.856915 -164.018387 70.090814 164.779243 0.000000 0.000000 0.000000 
-0.218773 77.849274 0.720818 0.000000 0.000000 0.000000 0.004768 -58.007314 3.180706 -33.877322 8.234462 28.294808 42.813241 -9.796285 -10.621011 -9.346953 -1.468571 -10.351513 -0.372549 1.244206 0.735808 0.000000 0.000000 0.000000 0.004768 -58.007314 3.180706 -29.683814 -8.672202 -30.694747 47.976171 6.989381 -5.335574 -20.540232 0.959630 22.500177 -0.579499 -0.986090 -0.821906 0.000000 0.000000 0.000000 0.004768 -58.007314 3.180706 10.987364 0.139825 -2.107637 8.021430 -0.218872 -4.943914 0.000000 0.000000 0.000000 0.000000 0.000000 0.000000 8.043892 -0.218787 -4.943432 -22.139443 23.571236 12.309603 3.256177 23.328158 -2.898966 0.000000 0.000000 0.000000 8.043892 -0.218787 -4.943432 -6.517723 -11.266683 -3.808849 0.000000 0.000000 0.000000 -19.916936 11.490707 -34.664252 8.966772 -49.187874 3.756234 0.000000 0.000000 0.000000 8.043892 -0.218787 -4.943432 -5.677148 8.006196 0.598004 0.000000 0.000000 0.000000 -27.295038 -19.926490 37.715464 167.963272 72.488265 -168.579615 0.000000 0.000000 0.000000 
-0.771328 77.467117 1.441624 0.000000 0.000000 0.000000 -1.812903 -57.485584 1.225862 -33.161876 8.093118 28.626919 43.978010 -10.633250 -10.633828 -10.433087 -1.428554 -9.861308 -0.411041 1.243806 0.648762 0.000000 0.000000 0.000000 -1.812903 -57.485584 1.225862 -27.560980 -9.131931 -30.725449 48.100511 6.699224 -5.562406 -21.516050 0.573991 23.239273 -0.953940 -0.970506 -0.944881 0.000000 0.000000 0.000000 -1.812903 -57.485584 1.225862 10.733219 0.025514 -1.776396 7.508718 -0.422825 -4.366854 0.000000 0.000000 0.000000 0.000000 0.000000 0.000000 7.531185 -0.422710 -4.366384 -21.736017 22.273416 12.364534 5.200205 21.513154 -1.423725 0.000000 0.000000 0.000000 7.531185 -0.422710 -4.366384 -6.671765 -10.584847 -3.418115 0.000000 0.000000 0.000000 -17.246738 13.730734 -32.214659 15.504864 -54.870697 8.081107 0.000000 0.000000 0.000000 7.531185 -0.422710 -4.366384 -5.864166 5.845907 -1.136022 0.000000 0.000000 0.000000 -16.889873 -14.076086 40.489057 134.153180 69.231166 -135.011038 0.000000 0.000000 0.000000 
-1.532441 78.030853 2.013630 0.000000 0.000000 0.000000 -3.257588 -56.593680 -0.576182 -31.808215 7.954221 28.570727 43.528543 -11.056953 -10.292047 -10.614006 -1.422479 -9.633051 -0.507132 1.243422 0.431901 0.000000 0.000000 0.000000 -3.257588 -56.593680 -0.576182 -24.446304 -10.286923 -29.834806 46.570412 5.718221 -6.057009 -21.962772 0.258895 24.068987 -1.150909 -0.967626 -0.921291 0.000000 0.000000 0.000000 -3.257588 -56.593680 -0.576182 10.322775 -0.089241 -1.448823 6.683862 -0.605009 -3.764428 0.000000 0.000000 0.000000 0.000000 0.000000 0.000000 6.706352 -0.604948 -3.763946 -19.460754 20.947645 12.091848 5.148828 19.945781 -0.554097 0.000000 0.000000 0.000000 6.706352 -0.604948 -3.763946 -6.731947 -8.817964 -2.534494 0.000000 0.000000 0.000000 -14.611212 17.347649 -27.846779 15.807397 -62.632589 10.018936 0.000000 0.000000 0.000000 6.706352 -0.604948 -3.763946 -6.149595 3.829285 -2.217232 0.000000 0.000000 0.000000 -7.965865 -10.783707 39.300806 117.184463 60.610457 -116.483125 0.000000 0.000000 0.000000 
-2.540517 79.435387 2.570137 0.000000 0.000000 0.000000 -4.759631 -55.055071 -2.458469 -29.565355 7.928963 27.905832 41.623026 -11.147374 -9.566271 -10.407948 -1.587935 -9.267689 -0.547697 1.243506 0.348723 0.000000 0.000000 0.000000 -4.759631 -55.055071 -2.458469 -19.926945 -12.174501 -28.313263 43.328736 4.171296 -6.706050 -21.915560 -0.016333 25.038814 -1.267006 -0.973809 -0.792941 0.000000 0.000000 0.000000 -4.759631 -55.055071 -2.458469 9.891068 -0.209060 -1.089443 5.818349 -0.783975 -3.101359 0.000000 0.000000 0.000000 0.000000 0.000000 0.000000 5.840826 -0.783894 -3.100884 -15.781717 19.493869 11.573655 5.665782 18.065572 0.579111 0.000000 0.000000 0.000000 5.840826 -0.783894 -3.100884 -6.706125 -6.010134 -0.294665 0.000000 0.000000 0.000000 -12.280393 22.647381 -22.166807 10.216817 -71.763425 7.796424 0.000000 0.000000 0.000000 5.840826 -0.783894 -3.100884 -6.491976 1.459261 -4.091279 0.000000 0.000000 0.000000 0.842986 -11.247533 37.125411 112.048762 55.607398 -111.143017 0.000000 0.000000 0.000000 
-3.682023 81.343887 3.143345 0.000000 0.000000 0.000000 -5.899015 -53.176277 -3.962478 -26.982638 8.198721 27.107689 38.516103 -11.409278 -8.928393 -9.599272 -1.848784 -8.875319 -0.583054 1.243438 0.282831 0.000000 0.000000 0.000000 -5.899015 -53.176277 -3.962478 -14.784902 -14.351843 -26.434898 38.830889 2.612892 -7.240356 -21.294839 -0.139781 25.834863 -1.409406 -0.977875 -0.621960 0.000000 0.000000 0.000000 -5.899015 -53.176277 -3.962478 9.485268 -0.291769 -0.767157 5.005530 -0.881173 -2.529629 0.000000 0.000000 0.000000 0.000000 0.000000 0.000000 5.028016 -0.881109 -2.529148 -11.418872 17.253903 10.896518 4.869583 15.774482 1.360705 0.000000 0.000000 0.000000 5.028016 -0.881109 -2.529148 -6.864994 -2.507084 2.262228 0.000000 0.000000 0.000000 -11.621985 29.209420 -15.336225 9.839516 -81.243748 9.945986 0.000000 0.000000 0.000000 5.028016 -0.881109 -2.529148 -6.954550 -1.662152 -6.560364 0.000000 0.000000 0.000000 8.595189 -14.098426 35.696331 110.113994 55.009223 -110.591589 0.000000 0.000000 0.000000 
-4.931733 83.587875 3.682770 0.000000 0.000000 0.000000 -6.583705 -51.305307 -5.100211 -24.286264 8.802974 26.474238 34.543678 -11.784920 -8.436485 -8.366428 -2.172895 -8.324171 -0.608393 1.243336 0.238532 0.000000 0.000000 0.000000 -6.583705 -51.305307 -5.100211 -9.172965 -16.115020 -23.950859 33.234454 1.703956 -7.551099 -20.330862 -0.046320 26.263833 -1.755938 -0.961607 -0.806343 0.000000 0.000000 0.000000 -6.583705 -51.305307 -5.100211 9.135715 -0.272908 -0.475519 4.309233 -0.763697 -2.049178 0.000000 0.000000 0.000000 0.000000 0.000000 0.000000 4.331709 -0.763623 -2.048697 -6.239406 15.020605 10.578697 2.956943 14.177489 0.629677 0.000000 0.000000 0.000000 4.331709 -0.763623 -2.048697 -7.295148 1.596060 4.080635 0.000000 0.000000 0.000000 -14.166323 35.477819 -6.707894 -35.556978 -87.759735 -33.088165 0.000000 0.000000 0.000000 4.331709 -0.763623 -2.048697 -7.680837 -6.057224 -9.063441 0.000000 0.000000 0.000000 14.504564 -16.855092 34.471497 108.088864 58.252716 -110.772534 0.000000 0.000000 0.000000 
-6.227790 86.028099 4.224411 0.000000 0.000000 0.000000 -6.899875 -49.651947 -6.055822 -21.580241 9.637521 26.052372 30.144692 -12.086805 -7.981354 -7.029357 -2.501233 -7.534038 -0.585012 1.243074 0.306465 0.000000 0.000000 0.000000 -6.899875 -49.651947 -6.055822 -2.801338 -16.514185 -20.935949 26.484900 1.473984 -7.254644 -19.100525 0.242719 26.247012 -2.295061 -0.917606 -1.357726 0.000000 0.000000 0.000000 -6.899875 -49.651947 -6.055822 8.823524 -0.142379 -0.158236 3.691368 -0.417023 -1.535716 0.000000 0.000000 0.000000 0.000000 0.000000 0.000000 3.713852 -0.416933 -1.535244 -0.717268 13.045367 10.109546 0.480932 12.914135 -0.572085 0.000000 0.000000 0.000000 3.713852 -0.416933 -1.535244 -7.868578 5.471427 5.982506 0.000000 0.000000 0.000000 -19.907440 40.680617 2.944133 -95.961972 -81.577922 -90.844583 0.000000 0.000000 0.000000 3.713852 -0.416933 -1.535244 -8.764278 -11.311483 -11.685421 0.000000 0.000000 0.000000 18.326566 -17.721595 33.088930 103.566561 61.391632 -107.585110 0.000000 0.000000 0.000000 
-7.531298 88.077255 4.703739 0.000000 0.000000 0.000000 -6.984157 -47.755778 -6.658635 -19.579531 10.097204 25.150744 26.741519 -13.218619 -7.434915 -6.084742 -1.741675 -5.466071 -0.533056 1.242867 0.447458 0.000000 0.000000 0.000000 -6.984157 -47.755778 -6.658635 3.239305 -15.378132 -19.487341 20.202670 2.262701 -4.260142 -17.413810 1.290344 23.890801 -4.262101 -0.780982 -1.400300 0.000000 0.000000 0.000000 -6.984157 -47.755778 -6.658635 8.551071 -0.025311 0.122281 3.151299 -0.111313 -1.082872 0.000000 0.000000 0.000000 0.000000 0.000000 0.000000 3.173781 -0.111182 -1.082402 4.690159 11.474160 8.599575 -2.909283 11.514458 -0.726114 0.000000 0.000000 0.000000 3.173781 -0.111182 -1.082402 -8.698155 9.680387 8.858603 0.000000 0.000000 0.000000 -26.648900 44.127025 10.714941 -86.200935 -81.364068 -80.938985 0.000000 0.000000 0.000000 3.173781 -0.111182 -1.082402 -10.043160 -16.179038 -14.205387 0.000000 0.000000 0.000000 19.835245 -18.016943 32.179542 99.064524 59.855577 -102.171625 0.000000 0.000000 0.000000 
-8.664168 89.766464 5.353905 0.000000 0.000000 0.000000 -6.756672 -45.296124 -6.844454 -18.607807 9.807503 24.078251 24.877852 -12.982515 -6.315379 -4.234632 -1.808586 -4.954223 -0.933752 1.249233 -0.395549 0.000000 0.000000 0.000000 -6.756672 -45.296124 -6.844454 8.365615 -13.672633 -18.750037 14.934284 3.634540 -1.061937 -15.224278 2.166416 21.273840 -7.396860 -0.489755 -1.814613 0.000000 0.000000 0.000000 -6.756672 -45.296124 -6.844454 8.292365 0.036547 0.502650 2.636845 0.073693 -0.682441 0.000000 0.000000 0.000000 0.000000 0.000000 0.000000 2.659310 0.073773 -0.681960 9.604727 10.133562 6.178008 -6.757096 9.817776 0.143545 0.000000 0.000000 0.000000 2.659310 0.073773 -0.681960 -9.449870 12.695232 10.973764 0.000000 0.000000 0.000000 -34.549771 47.086013 18.822994 -65.808613 -79.486572 -60.503202 0.000000 0.000000 0.000000 2.659310 0.073773 -0.681960 -11.317470 -20.383579 -16.193986 0.000000 0.000000 0.000000 18.776991 -19.716767 32.250610 98.863191 56.837573 -100.529969 0.000000 0.000000 0.000000 
